<svg version="1" xmlns="http://www.w3.org/2000/svg" width="2133.333" height="2133.333" viewBox="0 0 1600.000000 1600.000000"><path d="M100.6 87c1.9 78.2 14.9 146.1 39.9 208.3 12.4 30.9 34.8 71.2 54 97.1l5.8 7.9-4.9-.6c-6.7-.9-19.1-7.3-29.5-15.1-10.8-8.1-27.8-25-39.5-39.1l-8.9-10.7-.3 4.3c-.5 5.6 1.3 16.8 4.3 28.6 15 57.4 66.2 125.8 133.5 178.4 27.1 21.2 55.6 38.1 84.1 49.9 6.9 2.9 7.1 3 2.9 2.4-2.5-.3-10.7-2.2-18.4-4-50-12.3-95.4-30.9-128.3-52.7-6.2-4.1-11.3-7.1-11.3-6.6 0 1.8 6.1 17.2 9.5 23.9 20.6 40.8 66.7 84.5 129.5 122.7 38.3 23.3 89.5 48.2 130.3 63.5l13.2 4.9-13-.5c-33.6-1.2-86.6-13.5-129.8-30-3.8-1.4-6.5-2-6.1-1.3 9 15.4 31.3 40.7 51.4 58.1 52.9 45.8 133.1 87.2 200.9 103.7 6.9 1.7 12.8 3.2 12.9 3.4.2.2-2 1.6-4.9 3.1-14.2 7.2-41.6 11.9-75.4 13.1-9.9.3-18.1.7-18.2.8-.5.3 23 13.2 33.2 18.3 65.3 32.4 162.4 60.6 219.5 63.8l12.5.7-5.1 2.3c-6.5 2.9-25.3 7.9-36.9 9.8-13.2 2.3-37.1 4.6-47.7 4.7l-9.3.1 10.5 5c40.2 19.2 94.2 36.1 146.5 45.9 6.6 1.2 12.1 2.3 12.2 2.4.2.1-.9 3.5-2.3 7.6-3.9 11.5-10 36.1-12.3 49.9-6.3 38.2-5.9 80.5 1 117 17.2 89.9 69.1 167.5 145.4 217.5 105.1 68.8 241.7 72.1 350.1 8.4 10-5.8 29.7-19 29.2-19.5-.2-.1-8.5-.8-18.5-1.4-101.3-6-191.8-46.3-262.3-117-64-64.1-104-146.8-114.4-236.9-.9-7.4-1.5-13.6-1.3-13.7.1-.1 7.5.1 16.5.4l16.2.5v14.4c0 17.5 1.3 30.1 4.7 45.3 7.9 35.7 25.6 62.5 47 70.9 34.7 13.7 69.4-23.3 79-84.3 2.5-15.5 2.4-62.8-.1-83.6-11-91.3-50.9-178.5-117.1-255.8-11.5-13.5-36.6-40.3-42.1-45.1-2.1-1.8-7.3-6.6-11.4-10.5-26.3-25.1-61-52.4-122-95.7-81.6-58.1-175.6-116.6-303.5-188.9C341 342.3 292.6 311.6 236 264.6c-17.6-14.6-48-44.8-61.6-61.1-30.4-36.7-52-74.1-68.3-118.9-2.7-7.2-5.1-14-5.4-15.1-.4-1.1-.4 6.8-.1 17.5z"/><path d="M965.7 69.7c-1.6 2.8-12.3 37.6-15.6 50.8-6.4 25.7-9.5 43.2-12.7 71-2.5 21.3-2.5 73-.1 94 2.7 22.5 7.6 47.6 12.3 62.9.6 1.7.2 1.6-3.6-.5-11-6.2-26.3-29.8-36.6-56.7-1.5-4-3.1-6.9-3.5-6.5-.5.5-1.8 4.6-2.9 9.3-2.8 11-3.7 35.3-2.1 50 7.2 62.7 44.1 137.5 88.8 180l9.8 9.4-8-4.4c-25.3-13.7-47.9-30.4-66.5-49-7.4-7.4-16-17-19-21.3l-5.5-7.8-.3 7.3c-1.1 26.3 12.6 61.4 38.1 97.1 22.1 30.9 57.6 67 99.2 101.1 13.4 11.1 13.2 11.4-4.5 4.9-27-9.9-54.5-26.2-80.9-48.1l-3.9-3.2 1.4 6.2c6.7 28.6 26.9 65.9 53.9 99.6 23.6 29.4 60.8 64 85.7 79.7 2.7 1.7 4.8 3.3 4.8 3.7 0 .5-4.3.8-9.6.8-12.4 0-29.3-3.4-49.3-9.9-8.3-2.7-15.1-4.6-15.1-4.4 0 2.1 30.2 33.7 44.2 46.5l7.8 7 9.7-1.6c33.8-5.4 74.3-5.1 109.8 1 39.7 6.7 82.7 23.3 118.1 45.3l10 6.3 1.3 5.7c10.3 46.3 13.5 78.5 12 122.8-4.5 129.5-68.6 246.3-160.6 292.7-6.2 3.1-14.1 6.7-17.5 8-3.9 1.5-5.7 2.7-4.8 3 3.5 1.4 30.5 6.6 42.5 8.2 16.1 2.2 62.8 2.6 77.5.6 52.8-7 94.9-21.4 136.5-46.7 18-10.9 46.5-32.5 50-37.8.7-1.2 2.5-8.1 3.9-15.2 13.5-70.1 4.8-141.7-24.9-205.5l-6.3-13.5 1.6-10c2.1-13.1 2.3-67.4.4-81.5-9.3-67.4-30.1-125-67.9-187.8-14.2-23.6-50.8-77.9-77.3-114.7-31.8-44.3-58.9-79.3-126.5-164-72.8-91.2-90.3-114.1-115.2-151.2-42.8-63.9-66.7-119.7-74.7-174.3-2.2-14.8-3.8-38.7-3.4-50.3.3-9.8.3-10.3-.5-9z"/></svg>